<?xml version="1.0" encoding="UTF-8" standalone="no"?>
<!-- Created with Inkscape (http://www.inkscape.org/) -->

<svg
   xmlns:dc="http://purl.org/dc/elements/1.1/"
   xmlns:cc="http://creativecommons.org/ns#"
   xmlns:rdf="http://www.w3.org/1999/02/22-rdf-syntax-ns#"
   xmlns:svg="http://www.w3.org/2000/svg"
   xmlns="http://www.w3.org/2000/svg"
   xmlns:xlink="http://www.w3.org/1999/xlink"
   xmlns:sodipodi="http://sodipodi.sourceforge.net/DTD/sodipodi-0.dtd"
   xmlns:inkscape="http://www.inkscape.org/namespaces/inkscape"
   id="svg2"
   version="1.1"
   inkscape:version="0.48.4 r9939"
   width="512"
   height="512"
   xml:space="preserve"
   sodipodi:docname="roboboy2.svg"><metadata
     id="metadata8"><rdf:RDF><cc:Work
         rdf:about=""><dc:format>image/svg+xml</dc:format><dc:type
           rdf:resource="http://purl.org/dc/dcmitype/StillImage" /><dc:title /></cc:Work></rdf:RDF></metadata><defs
     id="defs6"><inkscape:path-effect
       effect="spiro"
       id="path-effect3949"
       is_visible="true" /><inkscape:path-effect
       effect="spiro"
       id="path-effect3945"
       is_visible="true" /><linearGradient
       id="linearGradient4069"><stop
         id="stop4071"
         offset="0"
         style="stop-color:#655858;stop-opacity:1;" /><stop
         id="stop4073"
         offset="1"
         style="stop-color:#210e0e;stop-opacity:1;" /></linearGradient><linearGradient
       id="linearGradient3886"><stop
         style="stop-color:#808080;stop-opacity:1;"
         offset="0"
         id="stop3888" /><stop
         style="stop-color:#5e5a5a;stop-opacity:1;"
         offset="1"
         id="stop3890" /></linearGradient><linearGradient
       id="linearGradient3878"><stop
         style="stop-color:#999999;stop-opacity:1;"
         offset="0"
         id="stop3880" /><stop
         style="stop-color:#483f3f;stop-opacity:1;"
         offset="1"
         id="stop3882" /></linearGradient><inkscape:path-effect
       effect="spiro"
       id="path-effect3137"
       is_visible="true" /><inkscape:path-effect
       effect="spiro"
       id="path-effect3102"
       is_visible="true" /><linearGradient
       id="linearGradient5150"><stop
         style="stop-color:#dfcb8e;stop-opacity:1;"
         offset="0"
         id="stop5152" /><stop
         style="stop-color:#af9139;stop-opacity:1;"
         offset="1"
         id="stop5154" /></linearGradient><inkscape:path-effect
       effect="spiro"
       id="path-effect5148"
       is_visible="true" /><inkscape:path-effect
       effect="spiro"
       id="path-effect5144"
       is_visible="true" /><inkscape:path-effect
       effect="spiro"
       id="path-effect3483"
       is_visible="true" /><clipPath
       clipPathUnits="userSpaceOnUse"
       id="clipPath16"><path
         d="m 0,595.28 841.89,0 L 841.89,0 0,0 0,595.28 z"
         id="path18"
         inkscape:connector-curvature="0" /></clipPath><linearGradient
       id="linearGradient6377"><stop
         id="stop6379"
         offset="0"
         style="stop-color:#8ae234;stop-opacity:1;" /><stop
         id="stop6381"
         offset="1"
         style="stop-color:#73d216;stop-opacity:1;" /></linearGradient><linearGradient
       id="linearGradient2966"><stop
         style="stop-color:#ffd1d1;stop-opacity:1;"
         offset="0"
         id="stop2968" /><stop
         id="stop3006"
         offset="0.5"
         style="stop-color:#ff1d1d;stop-opacity:1;" /><stop
         style="stop-color:#6f0000;stop-opacity:1;"
         offset="1"
         id="stop2970" /></linearGradient><linearGradient
       id="linearGradient2974"><stop
         style="stop-color:#c1c1c1;stop-opacity:1;"
         offset="0"
         id="stop2976" /><stop
         style="stop-color:#acacac;stop-opacity:1;"
         offset="1"
         id="stop2978" /></linearGradient><linearGradient
       id="linearGradient2994"><stop
         style="stop-color:#000000;stop-opacity:1;"
         offset="0"
         id="stop2996" /><stop
         style="stop-color:#c9c9c9;stop-opacity:1;"
         offset="1"
         id="stop2998" /></linearGradient><linearGradient
       id="linearGradient2966-4"><stop
         style="stop-color:#ffd1d1;stop-opacity:1;"
         offset="0"
         id="stop2968-7" /><stop
         id="stop3006-7"
         offset="0.5"
         style="stop-color:#ff1d1d;stop-opacity:1;" /><stop
         style="stop-color:#6f0000;stop-opacity:1;"
         offset="1"
         id="stop2970-2" /></linearGradient><linearGradient
       id="linearGradient2974-0"><stop
         style="stop-color:#c1c1c1;stop-opacity:1;"
         offset="0"
         id="stop2976-1" /><stop
         style="stop-color:#acacac;stop-opacity:1;"
         offset="1"
         id="stop2978-6" /></linearGradient><linearGradient
       id="linearGradient2994-2"><stop
         style="stop-color:#000000;stop-opacity:1;"
         offset="0"
         id="stop2996-0" /><stop
         style="stop-color:#c9c9c9;stop-opacity:1;"
         offset="1"
         id="stop2998-4" /></linearGradient><linearGradient
       gradientUnits="userSpaceOnUse"
       y2="24.534912"
       x2="45.579033"
       y1="24.534912"
       x1="4.1483898"
       id="linearGradient3821"
       xlink:href="#linearGradient6377-2"
       inkscape:collect="always" /><radialGradient
       gradientUnits="userSpaceOnUse"
       gradientTransform="matrix(1,0,0,0.361345,0,22.29694)"
       r="5.2591066"
       fy="31.780704"
       fx="39.907337"
       cy="31.780704"
       cx="39.907337"
       id="radialGradient6423"
       xlink:href="#linearGradient6417"
       inkscape:collect="always" /><radialGradient
       gradientUnits="userSpaceOnUse"
       gradientTransform="matrix(10.88255,-6.454846e-8,0,11.39737,-433.5968,-381.3811)"
       r="20.21875"
       fy="35.90107"
       fx="43.875"
       cy="35.90107"
       cx="43.875"
       id="radialGradient6413"
       xlink:href="#linearGradient6407"
       inkscape:collect="always" /><linearGradient
       gradientUnits="userSpaceOnUse"
       y2="67.031342"
       x2="26.130388"
       y1="14.08672"
       x1="26.213203"
       id="linearGradient5615"
       xlink:href="#linearGradient5609"
       inkscape:collect="always" /><linearGradient
       id="linearGradient2865"
       inkscape:collect="always"><stop
         id="stop2867"
         offset="0"
         style="stop-color:#000000;stop-opacity:1;" /><stop
         id="stop2869"
         offset="1"
         style="stop-color:#000000;stop-opacity:0;" /></linearGradient><linearGradient
       id="linearGradient5609"
       inkscape:collect="always"><stop
         id="stop5611"
         offset="0"
         style="stop-color:white;stop-opacity:1;" /><stop
         id="stop5613"
         offset="1"
         style="stop-color:white;stop-opacity:0;" /></linearGradient><linearGradient
       id="linearGradient6377-2"><stop
         id="stop6379-1"
         offset="0"
         style="stop-color:#8ae234;stop-opacity:1;" /><stop
         id="stop6381-4"
         offset="1"
         style="stop-color:#73d216;stop-opacity:1;" /></linearGradient><linearGradient
       id="linearGradient6407"
       inkscape:collect="always"><stop
         id="stop6409"
         offset="0"
         style="stop-color:white;stop-opacity:1;" /><stop
         id="stop6411"
         offset="1"
         style="stop-color:white;stop-opacity:0;" /></linearGradient><linearGradient
       id="linearGradient6417"
       inkscape:collect="always"><stop
         id="stop6419"
         offset="0"
         style="stop-color:black;stop-opacity:1;" /><stop
         id="stop6421"
         offset="1"
         style="stop-color:black;stop-opacity:0;" /></linearGradient><radialGradient
       r="19.5625"
       fy="40.4375"
       fx="23.5625"
       cy="40.4375"
       cx="23.5625"
       gradientTransform="matrix(1,0,0,0.348243,0,26.35543)"
       gradientUnits="userSpaceOnUse"
       id="radialGradient2552"
       xlink:href="#linearGradient2865"
       inkscape:collect="always" /><linearGradient
       y2="22.250591"
       x2="50.988335"
       y1="17.376184"
       x1="48.90625"
       gradientTransform="translate(-5.669292,0)"
       gradientUnits="userSpaceOnUse"
       id="linearGradient2554"
       xlink:href="#linearGradient2966-6"
       inkscape:collect="always" /><linearGradient
       id="linearGradient2966-6"><stop
         style="stop-color:#ffd1d1;stop-opacity:1;"
         offset="0"
         id="stop2968-72" /><stop
         id="stop3006-4"
         offset="0.5"
         style="stop-color:#ff1d1d;stop-opacity:1;" /><stop
         style="stop-color:#6f0000;stop-opacity:1;"
         offset="1"
         id="stop2970-3" /></linearGradient><linearGradient
       y2="22.625"
       x2="47.6875"
       y1="19.8125"
       x1="46"
       gradientTransform="translate(-5.669292,0)"
       gradientUnits="userSpaceOnUse"
       id="linearGradient2556"
       xlink:href="#linearGradient2974-8"
       inkscape:collect="always" /><linearGradient
       id="linearGradient2974-8"><stop
         style="stop-color:#c1c1c1;stop-opacity:1;"
         offset="0"
         id="stop2976-8" /><stop
         style="stop-color:#acacac;stop-opacity:1;"
         offset="1"
         id="stop2978-0" /></linearGradient><radialGradient
       r="3.2408545"
       fy="27.640751"
       fx="29.053354"
       cy="27.640751"
       cx="29.053354"
       gradientTransform="matrix(2.923565,0,0,2.029717,-61.55532,-27.88417)"
       gradientUnits="userSpaceOnUse"
       id="radialGradient2558"
       xlink:href="#linearGradient2984"
       inkscape:collect="always" /><linearGradient
       inkscape:collect="always"
       id="linearGradient2984"><stop
         style="stop-color:#e7e2b8;stop-opacity:1;"
         offset="0"
         id="stop2986" /><stop
         style="stop-color:#e7e2b8;stop-opacity:0;"
         offset="1"
         id="stop2988" /></linearGradient><linearGradient
       y2="30.703125"
       x2="25.514589"
       y1="31.046875"
       x1="25.71875"
       gradientTransform="translate(-5.825542,0.125)"
       gradientUnits="userSpaceOnUse"
       id="linearGradient2560"
       xlink:href="#linearGradient2994-6"
       inkscape:collect="always" /><linearGradient
       id="linearGradient2994-6"><stop
         style="stop-color:#000000;stop-opacity:1;"
         offset="0"
         id="stop2996-6" /><stop
         style="stop-color:#c9c9c9;stop-opacity:1;"
         offset="1"
         id="stop2998-7" /></linearGradient><linearGradient
       id="linearGradient2966-6-8"><stop
         style="stop-color:#eb8686;stop-opacity:1;"
         offset="0"
         id="stop2968-72-9" /><stop
         id="stop3006-4-8"
         offset="0.52314395"
         style="stop-color:#ff1d1d;stop-opacity:1;" /><stop
         style="stop-color:#980a0a;stop-opacity:1;"
         offset="1"
         id="stop2970-3-7" /></linearGradient><linearGradient
       id="linearGradient2974-8-2"><stop
         style="stop-color:#c1c1c1;stop-opacity:1;"
         offset="0"
         id="stop2976-8-7" /><stop
         style="stop-color:#acacac;stop-opacity:1;"
         offset="1"
         id="stop2978-0-0" /></linearGradient><linearGradient
       id="linearGradient2994-6-4"><stop
         style="stop-color:#000000;stop-opacity:1;"
         offset="0"
         id="stop2996-6-2" /><stop
         style="stop-color:#c9c9c9;stop-opacity:1;"
         offset="1"
         id="stop2998-7-2" /></linearGradient><clipPath
       id="clipPath3994"
       clipPathUnits="userSpaceOnUse"><path
         id="path3996"
         d="m 0,595.28 841.89,0 L 841.89,0 0,0 0,595.28 z"
         inkscape:connector-curvature="0" /></clipPath><radialGradient
       r="3.2408545"
       fy="27.640751"
       fx="29.053354"
       cy="27.640751"
       cx="29.053354"
       gradientTransform="matrix(2.923565,0,0,2.029717,-61.55532,-27.88417)"
       gradientUnits="userSpaceOnUse"
       id="radialGradient2558-83-4"
       xlink:href="#linearGradient2984-9-7"
       inkscape:collect="always" /><linearGradient
       inkscape:collect="always"
       id="linearGradient2984-9-7"><stop
         style="stop-color:#e7e2b8;stop-opacity:1;"
         offset="0"
         id="stop2986-8-3" /><stop
         style="stop-color:#e7e2b8;stop-opacity:0;"
         offset="1"
         id="stop2988-3-7" /></linearGradient><linearGradient
       y2="30.703125"
       x2="25.514589"
       y1="31.046875"
       x1="25.71875"
       gradientTransform="matrix(22.762919,-7.3973169,47.991966,3.508598,-1965.5405,126.64112)"
       gradientUnits="userSpaceOnUse"
       id="linearGradient2560-0-4"
       xlink:href="#linearGradient2994-6-4-6"
       inkscape:collect="always" /><linearGradient
       id="linearGradient2994-6-4-6"><stop
         style="stop-color:#000000;stop-opacity:1;"
         offset="0"
         id="stop2996-6-2-8" /><stop
         style="stop-color:#c9c9c9;stop-opacity:1;"
         offset="1"
         id="stop2998-7-2-2" /></linearGradient><linearGradient
       inkscape:collect="always"
       xlink:href="#linearGradient2994-6-4-6"
       id="linearGradient5053"
       gradientUnits="userSpaceOnUse"
       gradientTransform="matrix(18.210335,6.4234734,38.393573,-3.0466974,-995.6926,93.439282)"
       x1="25.71875"
       y1="31.046875"
       x2="25.514589"
       y2="30.703125" /><linearGradient
       inkscape:collect="always"
       xlink:href="#linearGradient2994-6-4-6"
       id="linearGradient3105"
       gradientUnits="userSpaceOnUse"
       gradientTransform="matrix(23.249137,8.2008493,49.017079,-3.8897189,-1920.8096,-64.258374)"
       x1="25.71875"
       y1="31.046875"
       x2="25.514589"
       y2="30.703125" /><linearGradient
       inkscape:collect="always"
       xlink:href="#linearGradient5150"
       id="linearGradient3108"
       gradientUnits="userSpaceOnUse"
       x1="619.16449"
       y1="197.30368"
       x2="713.68335"
       y2="186.96486"
       gradientTransform="matrix(1.1068293,0,0,1.1068293,-540.44882,-146.50327)" /><radialGradient
       inkscape:collect="always"
       xlink:href="#linearGradient2966-6-8"
       id="radialGradient3876"
       cx="155.94006"
       cy="350.95724"
       fx="155.94006"
       fy="350.95724"
       r="113.34541"
       gradientTransform="matrix(1.7881777,0,0,-1.2679326,-83.923466,526.79217)"
       gradientUnits="userSpaceOnUse" /><linearGradient
       inkscape:collect="always"
       xlink:href="#linearGradient3878"
       id="linearGradient3884"
       x1="89.331978"
       y1="-260.6024"
       x2="320.35114"
       y2="-260.6024"
       gradientUnits="userSpaceOnUse"
       gradientTransform="matrix(1,0,0,0.74930328,0,-69.966479)" /><linearGradient
       inkscape:collect="always"
       xlink:href="#linearGradient3886"
       id="linearGradient3892"
       x1="88.238045"
       y1="-255.6024"
       x2="321.58253"
       y2="-255.6024"
       gradientUnits="userSpaceOnUse" /><linearGradient
       inkscape:collect="always"
       xlink:href="#linearGradient3886"
       id="linearGradient3894"
       x1="88.090561"
       y1="-266.2024"
       x2="321.63251"
       y2="-266.2024"
       gradientUnits="userSpaceOnUse"
       gradientTransform="matrix(1,0,0,2.1287162,0,305.39244)" /><filter
       inkscape:collect="always"
       id="filter4032"><feGaussianBlur
         inkscape:collect="always"
         stdDeviation="3.7277704"
         id="feGaussianBlur4034" /></filter><filter
       inkscape:collect="always"
       id="filter3939"><feGaussianBlur
         inkscape:collect="always"
         stdDeviation="4.4732631"
         id="feGaussianBlur3941" /></filter></defs><sodipodi:namedview
     pagecolor="#ffffff"
     bordercolor="#666666"
     borderopacity="1"
     objecttolerance="10"
     gridtolerance="10"
     guidetolerance="10"
     inkscape:pageopacity="0"
     inkscape:pageshadow="2"
     inkscape:window-width="1003"
     inkscape:window-height="875"
     id="namedview4"
     showgrid="false"
     inkscape:zoom="0.35355339"
     inkscape:cx="499.93374"
     inkscape:cy="350.36237"
     inkscape:window-x="0"
     inkscape:window-y="25"
     inkscape:window-maximized="0"
     inkscape:current-layer="g10"
     inkscape:snap-bbox="true"
     inkscape:bbox-paths="true"
     inkscape:bbox-nodes="true"
     inkscape:snap-bbox-edge-midpoints="true"
     inkscape:snap-bbox-midpoints="true"
     inkscape:object-paths="true"
     inkscape:snap-global="false"
     inkscape:object-nodes="true"
     showguides="true"
     inkscape:guide-bbox="true" /><g
     id="g10"
     inkscape:groupmode="layer"
     inkscape:label="default"
     transform="matrix(1.25,0,0,-1.25,0,512)"><path
       style="fill:none;stroke:#000000;stroke-width:4.8;stroke-linecap:round;stroke-linejoin:round;stroke-miterlimit:4;stroke-opacity:1;stroke-dasharray:none;stroke-dashoffset:0"
       d="m 207.1968,12.775597 c 44.02967,0.586763 92.16977,4.476343 135.55059,5.454886 21.94124,0.494932 -88.94787,13.008857 -88.03999,13.319705 11.6363,3.984129 122.68771,9.439383 123.21693,11.262049 1.16609,4.016106 -51.32579,5.640711 -50.45629,8.635321 1.24611,4.291724 87.71662,3.528746 43.0861,8.901318"
       id="path3959"
       inkscape:connector-curvature="0" /><g
       id="g3889"
       style="opacity:0.80578512;fill:#000000;filter:url(#filter3939)"
       transform="translate(0,-3.2)"><path
         id="path3891"
         transform="matrix(0.8,0,0,-0.8,0,409.6)"
         d="m 343.125,12.90625 c -1.39741,0.134232 -2.69892,0.931313 -3.40625,2.25 l -22.15625,40.5 c -18.66529,-8.3026 -39.55977,-12.9624 -61.65625,-12.9375 -22.03835,-0.018 -42.91634,4.61805 -61.5,12.875 L 172.21875,15.1875 c -1.15664,-2.132025 -3.81019,-2.910787 -5.90625,-1.75 -2.13756,1.149713 -2.9343,3.815725 -1.75,5.90625 L 186.53125,59.4375 C 143.37183,81.697225 114.22786,124.057 114.25,172.71875 l 283.34375,-0.0312 c 0.009,-48.65483 -29.09171,-90.9377 -72.1875,-113.25 L 347.375,19.34375 c 1.17046,-2.094675 0.40636,-4.754575 -1.71875,-5.9375 -0.80262,-0.425438 -1.6928,-0.580539 -2.53125,-0.5 z M 320.5,97.59375 c 6.51507,0.018 11.84929,5.38426 11.84375,11.90625 0.0152,6.55935 -5.29546,11.87637 -11.84375,11.875 -6.55104,0.007 -11.90763,-5.30182 -11.90625,-11.875 0.0221,-6.50955 5.34275,-11.884112 11.90625,-11.90625 z M 191.46875,97.625 c 6.57041,-0.005 11.89795,5.38149 11.90625,11.90625 0.002,6.54689 -5.32615,11.87085 -11.90625,11.875 -6.52476,-0.0152 -11.84236,-5.32257 -11.84375,-11.875 0.002,-6.52752 5.29685,-11.907625 11.84375,-11.90625 z"
         style="fill:#000000;fill-opacity:1;fill-rule:nonzero;stroke:none"
         inkscape:connector-curvature="0" /><path
         inkscape:connector-curvature="0"
         style="fill:#000000;fill-opacity:1;fill-rule:nonzero;stroke:none"
         d="m 57.388435,267.41409 c -13.897349,0.007 -25.160444,-11.2797 -25.163764,-25.16487 l 0.01882,-105.38454 c 0.0033,-13.93277 11.270843,-25.17484 25.169298,-25.17262 13.906204,-0.001 25.171512,11.2476 25.157123,25.17151 l 0.0022,105.40003 c -0.0055,13.88186 -11.285231,25.15934 -25.183687,25.15049"
         id="path3893" /><path
         inkscape:connector-curvature="0"
         style="fill:#000000;fill-opacity:1;fill-rule:nonzero;stroke:none"
         d="m 377.34844,242.28795 c -0.002,13.89846 -11.26753,25.16266 -25.16488,25.15934 -13.89624,0.0111 -25.16044,-11.27306 -25.15712,-25.17262 l 0.0177,-105.38675 c -0.001,-13.91284 11.25867,-25.15712 25.16487,-25.16155 13.89624,0.002 25.15491,11.24871 25.15823,25.17262 l -0.0188,105.38896 z"
         id="path3895" /><path
         style="fill:#000000;fill-opacity:1;fill-rule:nonzero;stroke:none"
         d="M 92.321075,262.66562 92.359815,87.528137 204.85075,12.344352 317.34168,87.560567 317.31398,262.70008 z"
         id="path3897"
         inkscape:connector-curvature="0"
         sodipodi:nodetypes="cccccc" /><rect
         style="fill:#000000;fill-opacity:1;fill-rule:nonzero;stroke:none"
         id="rect3899"
         width="231.01917"
         height="18.138428"
         x="89.331978"
         y="-274.30594"
         transform="scale(1,-1)" /><path
         sodipodi:nodetypes="cccscc"
         inkscape:connector-curvature="0"
         id="path3901"
         d="m 282.2692,-256.16751 35.07232,0 0,168.604201 c 0,0 -11.69077,8.4 -17.53616,8.4 -5.84539,0 -17.53616,-8.4 -17.53616,-8.4 z"
         style="fill:#000000;fill-opacity:0.2767857;fill-rule:nonzero;stroke:none"
         transform="scale(1,-1)" /><path
         sodipodi:nodetypes="cccscc"
         inkscape:connector-curvature="0"
         id="path3903"
         d="m 92.321045,-256.16751 94.034765,0 0,168.639388 c 0,0 -31.34492,8.8 -47.01738,8.8 -15.67246,0 -47.017385,-8.8 -47.017385,-8.8 z"
         style="fill:#000000;fill-opacity:0.19642855;fill-rule:nonzero;stroke:none"
         transform="scale(1,-1)" /><path
         inkscape:original-d="M 205.20117,11.037743 92.359814,87.528137 c 0,0 30.010506,-6.326449 45.240306,-6.393357 16.27387,-0.0715 48.39989,6.406639 48.39989,6.406639 0,0 32.93005,-6.458849 49.60005,-6.393359 15.74535,0.06186 46.79994,6.406641 46.79994,6.406641 0,0 11.63258,-6.460837 18,-6.397791 6.03671,0.05977 16.94168,6.402219 16.94168,6.402219 z"
         inkscape:path-effect="#path-effect3102"
         inkscape:connector-curvature="0"
         sodipodi:nodetypes="ccacacacc"
         id="path3905"
         d="M 205.20117,11.037743 92.359814,87.528137 c 14.712966,-4.101288 29.967016,-6.256989 45.240306,-6.393357 16.32706,-0.145777 32.67305,2.017924 48.39989,6.406639 16.14178,-4.365042 32.87898,-6.522438 49.60005,-6.393359 15.7883,0.121878 31.55974,2.280897 46.79994,6.406641 4.96654,-4.206137 11.49295,-6.525836 18,-6.397791 6.15487,0.121114 12.24495,2.422544 16.94168,6.402219 L 205.20117,11.037743"
         style="color:#000000;fill:#000000;fill-opacity:1;fill-rule:evenodd;stroke:none;stroke-width:1;marker:none;visibility:visible;display:inline;overflow:visible"
         inkscape:r_cx="true"
         inkscape:r_cy="true" /><path
         inkscape:connector-curvature="0"
         sodipodi:nodetypes="cccc"
         id="path3907"
         d="m 168.92618,35.62703 36.72837,-24.808229 35.99139,25.088246 c -30.14527,4.589655 -49.64617,3.225809 -72.71976,-0.280017 z"
         style="color:#000000;fill:#000000;fill-opacity:1;fill-rule:evenodd;stroke:none;stroke-width:1;marker:none;visibility:visible;display:inline;overflow:visible"
         inkscape:r_cx="true"
         inkscape:r_cy="true" /><rect
         y="252.67044"
         x="89.331978"
         height="3.6970565"
         width="231.01917"
         id="rect3909"
         style="fill:#000000;fill-opacity:1;fill-rule:nonzero;stroke:none" /></g><g
       id="g3947"><path
         style="fill:url(#radialGradient3876);fill-opacity:1;fill-rule:nonzero;stroke:none"
         d="M 343.125 12.90625 C 341.72759 13.040482 340.42608 13.837563 339.71875 15.15625 L 317.5625 55.65625 C 298.89721 47.35365 278.00273 42.69385 255.90625 42.71875 C 233.8679 42.70075 212.98991 47.3368 194.40625 55.59375 L 172.21875 15.1875 C 171.06211 13.055475 168.40856 12.276713 166.3125 13.4375 C 164.17494 14.587213 163.3782 17.253225 164.5625 19.34375 L 186.53125 59.4375 C 143.37183 81.697225 114.22786 124.057 114.25 172.71875 L 397.59375 172.6875 C 397.6025 124.03267 368.50204 81.7498 325.40625 59.4375 L 347.375 19.34375 C 348.54546 17.249075 347.78136 14.589175 345.65625 13.40625 C 344.85363 12.980812 343.96345 12.825711 343.125 12.90625 z M 320.5 97.59375 C 327.01507 97.61175 332.34929 102.97801 332.34375 109.5 C 332.359 116.05935 327.04829 121.37637 320.5 121.375 C 313.94896 121.3825 308.59237 116.07318 308.59375 109.5 C 308.61587 102.99045 313.9365 97.615888 320.5 97.59375 z M 191.46875 97.625 C 198.03916 97.62 203.3667 103.00649 203.375 109.53125 C 203.3775 116.07814 198.04885 121.4021 191.46875 121.40625 C 184.94399 121.391 179.62639 116.08368 179.625 109.53125 C 179.6275 103.00373 184.92185 97.623625 191.46875 97.625 z "
         transform="matrix(0.8,0,0,-0.8,0,409.6)"
         id="path4119" /><path
         id="path4032"
         d="m 57.388435,267.41409 c -13.897349,0.007 -25.160444,-11.2797 -25.163764,-25.16487 l 0.01882,-105.38454 c 0.0033,-13.93277 11.270843,-25.17484 25.169298,-25.17262 13.906204,-0.001 25.171512,11.2476 25.157123,25.17151 l 0.0022,105.40003 c -0.0055,13.88186 -11.285231,25.15934 -25.183687,25.15049"
         style="fill:#b6d060;fill-opacity:1;fill-rule:nonzero;stroke:none"
         inkscape:connector-curvature="0" /><path
         id="path4127"
         d="m 377.34844,242.28795 c -0.002,13.89846 -11.26753,25.16266 -25.16488,25.15934 -13.89624,0.0111 -25.16044,-11.27306 -25.15712,-25.17262 l 0.0177,-105.38675 c -0.001,-13.91284 11.25867,-25.15712 25.16487,-25.16155 13.89624,0.002 25.15491,11.24871 25.15823,25.17262 l -0.0188,105.38896 z"
         style="fill:#768d29;fill-opacity:1;fill-rule:nonzero;stroke:none"
         inkscape:connector-curvature="0" /><path
         sodipodi:nodetypes="cccccc"
         inkscape:connector-curvature="0"
         id="path4125"
         d="M 92.321075,262.66562 92.359815,87.528137 204.85075,12.344352 317.34168,87.560567 317.31398,262.70008 z"
         style="fill:#a4c439;fill-opacity:1;fill-rule:nonzero;stroke:none" /><rect
         transform="scale(1,-1)"
         y="-274.30594"
         x="89.331978"
         height="18.138428"
         width="231.01917"
         id="rect4924"
         style="fill:url(#linearGradient3884);fill-opacity:1;fill-rule:nonzero;stroke:none" /><path
         transform="scale(1,-1)"
         style="fill:#000000;fill-opacity:0.2767857;fill-rule:nonzero;stroke:none"
         d="m 282.2692,-256.16751 35.07232,0 0,168.604201 c 0,0 -11.69077,8.4 -17.53616,8.4 -5.84539,0 -17.53616,-8.4 -17.53616,-8.4 z"
         id="rect4947"
         inkscape:connector-curvature="0"
         sodipodi:nodetypes="cccscc" /><path
         transform="scale(1,-1)"
         style="fill:#ffffff;fill-opacity:0.19642857;fill-rule:nonzero;stroke:none"
         d="m 92.321045,-256.16751 94.034765,0 0,168.639388 c 0,0 -31.34492,8.8 -47.01738,8.8 -15.67246,0 -47.017385,-8.8 -47.017385,-8.8 z"
         id="rect4949"
         inkscape:connector-curvature="0"
         sodipodi:nodetypes="cccscc" /><path
         inkscape:r_cy="true"
         inkscape:r_cx="true"
         style="color:#000000;fill:url(#linearGradient3108);fill-opacity:1;fill-rule:evenodd;stroke:none;stroke-width:1;marker:none;visibility:visible;display:inline;overflow:visible"
         d="M 205.20117,11.037743 92.359814,87.528137 c 14.712966,-4.101288 29.967016,-6.256989 45.240306,-6.393357 16.32706,-0.145777 32.67305,2.017924 48.39989,6.406639 16.14178,-4.365042 32.87898,-6.522438 49.60005,-6.393359 15.7883,0.121878 31.55974,2.280897 46.79994,6.406641 4.96654,-4.206137 11.49295,-6.525836 18,-6.397791 6.15487,0.121114 12.24495,2.422544 16.94168,6.402219 L 205.20117,11.037743"
         id="path5000"
         sodipodi:nodetypes="ccacacacc"
         inkscape:connector-curvature="0"
         inkscape:path-effect="#path-effect3102"
         inkscape:original-d="M 205.20117,11.037743 92.359814,87.528137 c 0,0 30.010506,-6.326449 45.240306,-6.393357 16.27387,-0.0715 48.39989,6.406639 48.39989,6.406639 0,0 32.93005,-6.458849 49.60005,-6.393359 15.74535,0.06186 46.79994,6.406641 46.79994,6.406641 0,0 11.63258,-6.460837 18,-6.397791 6.03671,0.05977 16.94168,6.402219 16.94168,6.402219 z" /><path
         inkscape:r_cy="true"
         inkscape:r_cx="true"
         style="color:#000000;fill:url(#linearGradient3105);fill-opacity:1;fill-rule:evenodd;stroke:none;stroke-width:1;marker:none;visibility:visible;display:inline;overflow:visible"
         d="m 168.92618,35.62703 36.72837,-24.808229 35.99139,25.088246 c -30.14527,4.589655 -49.64617,3.225809 -72.71976,-0.280017 z"
         id="path5002"
         sodipodi:nodetypes="cccc"
         inkscape:connector-curvature="0" /><rect
         style="fill:#393939;fill-opacity:1;fill-rule:nonzero;stroke:none"
         id="rect4065"
         width="231.01917"
         height="3.6970565"
         x="89.331978"
         y="252.67044" /></g></g></svg>