<?xml version="1.0" encoding="UTF-8" standalone="no"?>
<!-- Created with Inkscape (http://www.inkscape.org/) -->

<svg
   xmlns:dc="http://purl.org/dc/elements/1.1/"
   xmlns:cc="http://creativecommons.org/ns#"
   xmlns:rdf="http://www.w3.org/1999/02/22-rdf-syntax-ns#"
   xmlns:svg="http://www.w3.org/2000/svg"
   xmlns="http://www.w3.org/2000/svg"
   xmlns:xlink="http://www.w3.org/1999/xlink"
   xmlns:sodipodi="http://sodipodi.sourceforge.net/DTD/sodipodi-0.dtd"
   xmlns:inkscape="http://www.inkscape.org/namespaces/inkscape"
   id="svg2"
   version="1.1"
   inkscape:version="0.48.4 r9939"
   width="512"
   height="512"
   xml:space="preserve"
   sodipodi:docname="roboboy2.svg"><metadata
     id="metadata8"><rdf:RDF><cc:Work
         rdf:about=""><dc:format>image/svg+xml</dc:format><dc:type
           rdf:resource="http://purl.org/dc/dcmitype/StillImage" /><dc:title /></cc:Work></rdf:RDF></metadata><defs
     id="defs6"><linearGradient
       id="linearGradient5150"><stop
         style="stop-color:#dfcb8e;stop-opacity:1;"
         offset="0"
         id="stop5152" /><stop
         style="stop-color:#bfa043;stop-opacity:1;"
         offset="1"
         id="stop5154" /></linearGradient><inkscape:path-effect
       effect="spiro"
       id="path-effect5148"
       is_visible="true" /><inkscape:path-effect
       effect="spiro"
       id="path-effect5144"
       is_visible="true" /><inkscape:path-effect
       effect="spiro"
       id="path-effect3483"
       is_visible="true" /><clipPath
       clipPathUnits="userSpaceOnUse"
       id="clipPath16"><path
         d="m 0,595.28 841.89,0 L 841.89,0 0,0 0,595.28 z"
         id="path18"
         inkscape:connector-curvature="0" /></clipPath><linearGradient
       id="linearGradient6377"><stop
         id="stop6379"
         offset="0"
         style="stop-color:#8ae234;stop-opacity:1;" /><stop
         id="stop6381"
         offset="1"
         style="stop-color:#73d216;stop-opacity:1;" /></linearGradient><linearGradient
       id="linearGradient2966"><stop
         style="stop-color:#ffd1d1;stop-opacity:1;"
         offset="0"
         id="stop2968" /><stop
         id="stop3006"
         offset="0.5"
         style="stop-color:#ff1d1d;stop-opacity:1;" /><stop
         style="stop-color:#6f0000;stop-opacity:1;"
         offset="1"
         id="stop2970" /></linearGradient><linearGradient
       id="linearGradient2974"><stop
         style="stop-color:#c1c1c1;stop-opacity:1;"
         offset="0"
         id="stop2976" /><stop
         style="stop-color:#acacac;stop-opacity:1;"
         offset="1"
         id="stop2978" /></linearGradient><linearGradient
       id="linearGradient2994"><stop
         style="stop-color:#000000;stop-opacity:1;"
         offset="0"
         id="stop2996" /><stop
         style="stop-color:#c9c9c9;stop-opacity:1;"
         offset="1"
         id="stop2998" /></linearGradient><linearGradient
       id="linearGradient2966-4"><stop
         style="stop-color:#ffd1d1;stop-opacity:1;"
         offset="0"
         id="stop2968-7" /><stop
         id="stop3006-7"
         offset="0.5"
         style="stop-color:#ff1d1d;stop-opacity:1;" /><stop
         style="stop-color:#6f0000;stop-opacity:1;"
         offset="1"
         id="stop2970-2" /></linearGradient><linearGradient
       id="linearGradient2974-0"><stop
         style="stop-color:#c1c1c1;stop-opacity:1;"
         offset="0"
         id="stop2976-1" /><stop
         style="stop-color:#acacac;stop-opacity:1;"
         offset="1"
         id="stop2978-6" /></linearGradient><linearGradient
       id="linearGradient2994-2"><stop
         style="stop-color:#000000;stop-opacity:1;"
         offset="0"
         id="stop2996-0" /><stop
         style="stop-color:#c9c9c9;stop-opacity:1;"
         offset="1"
         id="stop2998-4" /></linearGradient><linearGradient
       gradientUnits="userSpaceOnUse"
       y2="24.534912"
       x2="45.579033"
       y1="24.534912"
       x1="4.1483898"
       id="linearGradient3821"
       xlink:href="#linearGradient6377-2"
       inkscape:collect="always" /><radialGradient
       gradientUnits="userSpaceOnUse"
       gradientTransform="matrix(1,0,0,0.361345,0,22.29694)"
       r="5.2591066"
       fy="31.780704"
       fx="39.907337"
       cy="31.780704"
       cx="39.907337"
       id="radialGradient6423"
       xlink:href="#linearGradient6417"
       inkscape:collect="always" /><radialGradient
       gradientUnits="userSpaceOnUse"
       gradientTransform="matrix(10.88255,-6.454846e-8,0,11.39737,-433.5968,-381.3811)"
       r="20.21875"
       fy="35.90107"
       fx="43.875"
       cy="35.90107"
       cx="43.875"
       id="radialGradient6413"
       xlink:href="#linearGradient6407"
       inkscape:collect="always" /><linearGradient
       gradientUnits="userSpaceOnUse"
       y2="67.031342"
       x2="26.130388"
       y1="14.08672"
       x1="26.213203"
       id="linearGradient5615"
       xlink:href="#linearGradient5609"
       inkscape:collect="always" /><linearGradient
       id="linearGradient2865"
       inkscape:collect="always"><stop
         id="stop2867"
         offset="0"
         style="stop-color:#000000;stop-opacity:1;" /><stop
         id="stop2869"
         offset="1"
         style="stop-color:#000000;stop-opacity:0;" /></linearGradient><linearGradient
       id="linearGradient5609"
       inkscape:collect="always"><stop
         id="stop5611"
         offset="0"
         style="stop-color:white;stop-opacity:1;" /><stop
         id="stop5613"
         offset="1"
         style="stop-color:white;stop-opacity:0;" /></linearGradient><linearGradient
       id="linearGradient6377-2"><stop
         id="stop6379-1"
         offset="0"
         style="stop-color:#8ae234;stop-opacity:1;" /><stop
         id="stop6381-4"
         offset="1"
         style="stop-color:#73d216;stop-opacity:1;" /></linearGradient><linearGradient
       id="linearGradient6407"
       inkscape:collect="always"><stop
         id="stop6409"
         offset="0"
         style="stop-color:white;stop-opacity:1;" /><stop
         id="stop6411"
         offset="1"
         style="stop-color:white;stop-opacity:0;" /></linearGradient><linearGradient
       id="linearGradient6417"
       inkscape:collect="always"><stop
         id="stop6419"
         offset="0"
         style="stop-color:black;stop-opacity:1;" /><stop
         id="stop6421"
         offset="1"
         style="stop-color:black;stop-opacity:0;" /></linearGradient><radialGradient
       r="19.5625"
       fy="40.4375"
       fx="23.5625"
       cy="40.4375"
       cx="23.5625"
       gradientTransform="matrix(1,0,0,0.348243,0,26.35543)"
       gradientUnits="userSpaceOnUse"
       id="radialGradient2552"
       xlink:href="#linearGradient2865"
       inkscape:collect="always" /><linearGradient
       y2="22.250591"
       x2="50.988335"
       y1="17.376184"
       x1="48.90625"
       gradientTransform="translate(-5.669292,0)"
       gradientUnits="userSpaceOnUse"
       id="linearGradient2554"
       xlink:href="#linearGradient2966-6"
       inkscape:collect="always" /><linearGradient
       id="linearGradient2966-6"><stop
         style="stop-color:#ffd1d1;stop-opacity:1;"
         offset="0"
         id="stop2968-72" /><stop
         id="stop3006-4"
         offset="0.5"
         style="stop-color:#ff1d1d;stop-opacity:1;" /><stop
         style="stop-color:#6f0000;stop-opacity:1;"
         offset="1"
         id="stop2970-3" /></linearGradient><linearGradient
       y2="22.625"
       x2="47.6875"
       y1="19.8125"
       x1="46"
       gradientTransform="translate(-5.669292,0)"
       gradientUnits="userSpaceOnUse"
       id="linearGradient2556"
       xlink:href="#linearGradient2974-8"
       inkscape:collect="always" /><linearGradient
       id="linearGradient2974-8"><stop
         style="stop-color:#c1c1c1;stop-opacity:1;"
         offset="0"
         id="stop2976-8" /><stop
         style="stop-color:#acacac;stop-opacity:1;"
         offset="1"
         id="stop2978-0" /></linearGradient><radialGradient
       r="3.2408545"
       fy="27.640751"
       fx="29.053354"
       cy="27.640751"
       cx="29.053354"
       gradientTransform="matrix(2.923565,0,0,2.029717,-61.55532,-27.88417)"
       gradientUnits="userSpaceOnUse"
       id="radialGradient2558"
       xlink:href="#linearGradient2984"
       inkscape:collect="always" /><linearGradient
       inkscape:collect="always"
       id="linearGradient2984"><stop
         style="stop-color:#e7e2b8;stop-opacity:1;"
         offset="0"
         id="stop2986" /><stop
         style="stop-color:#e7e2b8;stop-opacity:0;"
         offset="1"
         id="stop2988" /></linearGradient><linearGradient
       y2="30.703125"
       x2="25.514589"
       y1="31.046875"
       x1="25.71875"
       gradientTransform="translate(-5.825542,0.125)"
       gradientUnits="userSpaceOnUse"
       id="linearGradient2560"
       xlink:href="#linearGradient2994-6"
       inkscape:collect="always" /><linearGradient
       id="linearGradient2994-6"><stop
         style="stop-color:#000000;stop-opacity:1;"
         offset="0"
         id="stop2996-6" /><stop
         style="stop-color:#c9c9c9;stop-opacity:1;"
         offset="1"
         id="stop2998-7" /></linearGradient><linearGradient
       id="linearGradient2966-6-8"><stop
         style="stop-color:#ffd1d1;stop-opacity:1;"
         offset="0"
         id="stop2968-72-9" /><stop
         id="stop3006-4-8"
         offset="0.5"
         style="stop-color:#ff1d1d;stop-opacity:1;" /><stop
         style="stop-color:#6f0000;stop-opacity:1;"
         offset="1"
         id="stop2970-3-7" /></linearGradient><linearGradient
       id="linearGradient2974-8-2"><stop
         style="stop-color:#c1c1c1;stop-opacity:1;"
         offset="0"
         id="stop2976-8-7" /><stop
         style="stop-color:#acacac;stop-opacity:1;"
         offset="1"
         id="stop2978-0-0" /></linearGradient><linearGradient
       id="linearGradient2994-6-4"><stop
         style="stop-color:#000000;stop-opacity:1;"
         offset="0"
         id="stop2996-6-2" /><stop
         style="stop-color:#c9c9c9;stop-opacity:1;"
         offset="1"
         id="stop2998-7-2" /></linearGradient><clipPath
       id="clipPath3994"
       clipPathUnits="userSpaceOnUse"><path
         id="path3996"
         d="m 0,595.28 841.89,0 L 841.89,0 0,0 0,595.28 z"
         inkscape:connector-curvature="0" /></clipPath><radialGradient
       r="3.2408545"
       fy="27.640751"
       fx="29.053354"
       cy="27.640751"
       cx="29.053354"
       gradientTransform="matrix(2.923565,0,0,2.029717,-61.55532,-27.88417)"
       gradientUnits="userSpaceOnUse"
       id="radialGradient2558-83-4"
       xlink:href="#linearGradient2984-9-7"
       inkscape:collect="always" /><linearGradient
       inkscape:collect="always"
       id="linearGradient2984-9-7"><stop
         style="stop-color:#e7e2b8;stop-opacity:1;"
         offset="0"
         id="stop2986-8-3" /><stop
         style="stop-color:#e7e2b8;stop-opacity:0;"
         offset="1"
         id="stop2988-3-7" /></linearGradient><linearGradient
       y2="30.703125"
       x2="25.514589"
       y1="31.046875"
       x1="25.71875"
       gradientTransform="matrix(22.762919,-7.3973169,47.991966,3.508598,-1965.5405,126.64112)"
       gradientUnits="userSpaceOnUse"
       id="linearGradient2560-0-4"
       xlink:href="#linearGradient2994-6-4-6"
       inkscape:collect="always" /><linearGradient
       id="linearGradient2994-6-4-6"><stop
         style="stop-color:#000000;stop-opacity:1;"
         offset="0"
         id="stop2996-6-2-8" /><stop
         style="stop-color:#c9c9c9;stop-opacity:1;"
         offset="1"
         id="stop2998-7-2-2" /></linearGradient><linearGradient
       inkscape:collect="always"
       xlink:href="#linearGradient2994-6-4-6"
       id="linearGradient5053"
       gradientUnits="userSpaceOnUse"
       gradientTransform="matrix(18.210335,6.4234734,38.393573,-3.0466974,-995.6926,93.439282)"
       x1="25.71875"
       y1="31.046875"
       x2="25.514589"
       y2="30.703125" /><linearGradient
       inkscape:collect="always"
       xlink:href="#linearGradient2966-6-8"
       id="linearGradient5197"
       gradientUnits="userSpaceOnUse"
       x1="552.13135"
       y1="372.92761"
       x2="786.37152"
       y2="424.65164" /><linearGradient
       inkscape:collect="always"
       xlink:href="#linearGradient5150"
       id="linearGradient5199"
       gradientUnits="userSpaceOnUse"
       x1="624.94678"
       y1="182.12518"
       x2="717.29724"
       y2="185.51929" /><linearGradient
       inkscape:collect="always"
       xlink:href="#linearGradient2994-6-4-6"
       id="linearGradient5201"
       gradientUnits="userSpaceOnUse"
       gradientTransform="matrix(21.005169,7.4093171,44.286033,-3.5142898,-1247.1307,74.306757)"
       x1="25.71875"
       y1="31.046875"
       x2="25.514589"
       y2="30.703125" /></defs><sodipodi:namedview
     pagecolor="#ffffff"
     bordercolor="#666666"
     borderopacity="1"
     objecttolerance="10"
     gridtolerance="10"
     guidetolerance="10"
     inkscape:pageopacity="0"
     inkscape:pageshadow="2"
     inkscape:window-width="1284"
     inkscape:window-height="875"
     id="namedview4"
     showgrid="false"
     inkscape:zoom="1"
     inkscape:cx="258.35665"
     inkscape:cy="213.09515"
     inkscape:window-x="0"
     inkscape:window-y="25"
     inkscape:window-maximized="0"
     inkscape:current-layer="g10"
     inkscape:snap-bbox="true"
     inkscape:bbox-paths="true"
     inkscape:bbox-nodes="true"
     inkscape:snap-bbox-edge-midpoints="true"
     inkscape:snap-bbox-midpoints="true"
     inkscape:object-paths="true"
     inkscape:snap-global="false" /><g
     id="g10"
     inkscape:groupmode="layer"
     inkscape:label="default"
     transform="matrix(1.25,0,0,-1.25,0,512)"><g
       id="g5158"
       transform="matrix(1.1068293,0,0,1.1068293,-540.44882,-146.50327)"><g
         transform="translate(635.25351,116.38785)"
         id="g4014"><path
           sodipodi:nodetypes="cccccccccc"
           id="path4016"
           style="fill:#ffffff;fill-opacity:1;fill-rule:nonzero;stroke:none"
           d="m -71.89,75.626843 -0.03,177.647157 -0.002,8.367 8.361,-0.002 203.275,0.032 8.364,0.006 0.001,-8.361 L 148.1,75.649843 38.105,16.438343 z"
           inkscape:connector-curvature="0" /></g><g
         transform="translate(540.15931,224.91225)"
         id="g3998"><path
           id="path4000"
           style="fill:#ffffff;fill-opacity:1;fill-rule:nonzero;stroke:none"
           d="m 0,0 c -17.157,-0.01 -31.095,13.946 -31.097,31.101 l -0.008,95.217 c -0.006,17.137 13.929,31.09 31.063,31.093 8.332,0.007 16.13,-3.225 22.011,-9.096 5.881,-5.874 9.114,-13.686 9.12,-21.988 L 31.081,31.102 C 31.102,22.811 27.878,14.998 22.002,9.133 16.138,3.242 8.317,0.003 0,0"
           inkscape:connector-curvature="0" /></g><g
         transform="translate(540.13491,373.96645)"
         id="g4002"><path
           id="path4004"
           style="fill:#ffffff;fill-opacity:1;fill-rule:nonzero;stroke:none"
           d="m 0,0 c -12.556,0.006 -22.732,-10.19 -22.735,-22.735 l 0.017,-95.214 c 0.003,-12.588 10.197,-22.747 22.738,-22.759 12.566,0.015 22.744,10.178 22.731,22.758 l 0.002,95.227 C 22.748,-10.181 12.558,0.009 0,0"
           inkscape:connector-curvature="0" /></g><g
         transform="translate(784.03621,369.25205)"
         id="g4006"><path
           id="path4008"
           style="fill:#ffffff;fill-opacity:1;fill-rule:nonzero;stroke:none"
           d="m 0,0 -8.359,0.003 -204.813,-0.027 -8.362,-0.003 -0.003,8.361 c -0.019,34.321 18.68,66.242 49.304,85.102 l -11.906,21.733 c -1.458,2.548 -1.822,5.772 -0.975,8.723 0.861,2.949 2.894,5.482 5.621,6.933 1.576,0.894 3.501,1.391 5.449,1.388 4.216,-0.001 8.083,-2.289 10.117,-5.989 l 12.462,-22.701 c 12.897,4.732 26.511,7.144 40.576,7.139 14.268,0.006 27.951,-2.409 40.902,-7.159 l 12.442,22.74 c 2.003,3.691 5.895,5.99 10.106,5.986 1.896,0.002 3.786,-0.461 5.455,-1.359 2.799,-1.536 4.751,-3.984 5.61,-6.954 0.855,-2.952 0.512,-6.07 -0.988,-8.774 l -11.9,-21.723 C -18.684,74.521 -0.008,42.623 -0.011,8.362 L 0,0 z"
           inkscape:connector-curvature="0" /></g><g
         transform="translate(719.92881,414.70275)"
         id="g4010"><path
           id="path4012"
           style="fill:#ffffff;fill-opacity:1;fill-rule:nonzero;stroke:none"
           d="m 0,0 c -4.734,-0.005 -8.597,3.828 -8.588,8.585 0,4.707 3.848,8.588 8.592,8.604 C 4.713,17.176 8.576,13.294 8.572,8.58 8.575,3.84 4.733,-0.001 0,0 m -93.257,-0.017 c -4.717,0.011 -8.559,3.845 -8.56,8.581 0.002,4.718 3.842,8.596 8.567,8.596 4.749,0.004 8.59,-3.878 8.596,-8.594 0.002,-4.733 -3.847,-8.58 -8.603,-8.583 M 3.561,44.765 19.43,73.746 c 0.846,1.514 0.293,3.454 -1.238,4.293 -1.552,0.836 -3.467,0.265 -4.285,-1.257 L -2.128,47.511 c -13.486,5.985 -28.585,9.356 -44.547,9.34 -15.929,0.013 -31.001,-3.34 -44.448,-9.309 l -16.046,29.207 c -0.828,1.54 -2.762,2.103 -4.271,1.255 -1.543,-0.823 -2.107,-2.759 -1.252,-4.27 L -96.814,44.778 C -128.01,28.686 -149.085,-1.949 -149.069,-37.121 L 55.741,-37.1 C 55.747,-1.933 34.709,28.638 3.561,44.765"
           inkscape:connector-curvature="0" /></g><path
         id="path4119"
         d="m 723.48901,459.46775 15.87,28.981 c 0.846,1.514 0.291,3.443 -1.245,4.298 -1.547,0.82 -3.46,0.263 -4.278,-1.262 l -16.029,-29.283 c -13.491,6.001 -28.582,9.37 -44.553,9.352 -15.929,0.013 -31.016,-3.341 -44.448,-9.309 l -16.046,29.207 c -0.836,1.541 -2.755,2.098 -4.27,1.259 -1.545,-0.831 -2.109,-2.763 -1.253,-4.274 l 15.877,-28.959 c -31.195,-16.089 -52.271,-46.724 -52.255,-81.896 l 204.811,0.021 c 0.006,35.167 -21.032,65.738 -52.181,81.865"
         style="fill:url(#linearGradient5197);fill-opacity:1;fill-rule:nonzero;stroke:none"
         inkscape:connector-curvature="0" /><g
         transform="translate(806.50301,224.95035)"
         id="g4022"><path
           id="path4024"
           style="fill:#ffffff;fill-opacity:1;fill-rule:nonzero;stroke:none"
           d="m 0,0 c -17.148,-0.002 -31.098,13.933 -31.093,31.087 l -0.023,95.217 c 0.004,17.152 13.931,31.102 31.072,31.103 17.162,0.002 31.118,-13.945 31.115,-31.093 L 31.08,31.103 C 31.084,13.962 17.147,-0.003 0,0"
           inkscape:connector-curvature="0" /></g><g
         transform="translate(806.47671,373.99715)"
         id="g4026"><path
           id="path4028"
           style="fill:#ffffff;fill-opacity:1;fill-rule:nonzero;stroke:none"
           d="m 0,0 c -12.555,0.01 -22.731,-10.186 -22.729,-22.743 l 0.009,-95.213 c 0.006,-12.572 10.177,-22.743 22.743,-22.735 12.555,0.002 22.719,10.165 22.73,22.743 l -0.025,95.211 C 22.726,-10.177 12.557,0.003 0,0"
           inkscape:connector-curvature="0" /></g><path
         id="path4127"
         d="m 829.21301,351.26575 c -0.002,12.557 -10.18,22.734 -22.736,22.731 -12.555,0.01 -22.732,-10.185 -22.729,-22.743 l 0.016,-95.215 c -10e-4,-12.57 10.172,-22.729 22.736,-22.733 12.555,0.002 22.727,10.163 22.73,22.743 l -0.017,95.217 z"
         style="fill:#a4c439;fill-opacity:1;fill-rule:nonzero;stroke:none"
         inkscape:connector-curvature="0" /><path
         sodipodi:nodetypes="ccccc"
         inkscape:connector-curvature="0"
         id="path4125"
         d="m 571.69601,369.67375 0.035,-172.68637 203.267,0.032 -0.025,172.68837 z"
         style="fill:#a4c439;fill-opacity:1;fill-rule:nonzero;stroke:none" /><path
         id="path4123"
         d="m 719.92901,414.70275 c -4.735,-0.005 -8.589,3.834 -8.588,8.585 0.016,4.705 3.848,8.588 8.592,8.604 4.709,-0.013 8.572,-3.895 8.568,-8.609 0.011,-4.741 -3.839,-8.581 -8.572,-8.58"
         style="fill:#ffffff;fill-opacity:1;fill-rule:nonzero;stroke:none"
         inkscape:connector-curvature="0" /><path
         id="path4121"
         d="m 626.67101,414.68575 c -4.716,0.011 -8.558,3.845 -8.559,8.581 0.002,4.718 3.835,8.597 8.567,8.596 4.749,0.004 8.59,-3.878 8.596,-8.594 0.002,-4.732 -3.848,-8.58 -8.604,-8.583"
         style="fill:#ffffff;fill-opacity:1;fill-rule:nonzero;stroke:none"
         inkscape:connector-curvature="0" /><path
         id="path4032"
         d="m 540.13501,373.96675 c -12.556,0.006 -22.732,-10.191 -22.735,-22.736 l 0.017,-95.213 c 0.003,-12.588 10.183,-22.745 22.74,-22.743 12.564,-0.001 22.742,10.162 22.729,22.742 l 0.002,95.227 c -0.005,12.542 -10.196,22.731 -22.753,22.723"
         style="fill:#a4c439;fill-opacity:1;fill-rule:nonzero;stroke:none"
         inkscape:connector-curvature="0" /><rect
         transform="scale(1,-1)"
         y="-378.74783"
         x="570.85907"
         height="21.870632"
         width="204.81358"
         id="rect4924"
         style="fill:#b2b2b2;fill-opacity:1;fill-rule:nonzero;stroke:none" /><rect
         transform="matrix(0.8,0,0,-0.8,0,595.28)"
         y="297.91559"
         x="929.13831"
         height="199.90681"
         width="39.609009"
         id="rect4947"
         style="fill:#000000;fill-opacity:0.36470588;fill-rule:nonzero;stroke:none" /><rect
         transform="scale(1,-1)"
         y="-356.98499"
         x="571.69598"
         height="159.9976"
         width="84.958687"
         id="rect4949"
         style="fill:#ffffff;fill-opacity:0.36470588;fill-rule:nonzero;stroke:none" /><path
         inkscape:r_cy="true"
         inkscape:r_cx="true"
         style="color:#000000;fill:url(#linearGradient5199);fill-opacity:1;fill-rule:evenodd;stroke:none;stroke-width:1;marker:none;visibility:visible;display:inline;overflow:visible"
         d="m 673.68111,142.33542 -101.90878,54.65676 203.22486,0.0326 z"
         id="path5000"
         sodipodi:nodetypes="cccc"
         inkscape:connector-curvature="0" /><path
         inkscape:r_cy="true"
         inkscape:r_cx="true"
         style="color:#000000;fill:url(#linearGradient5201);fill-opacity:1;fill-rule:evenodd;stroke:none;stroke-width:1;marker:none;visibility:visible;display:inline;overflow:visible"
         d="m 638.34327,161.17865 35.74746,-19.04104 34.79149,19.26381 c -27.2357,4.14667 -49.69238,2.94468 -70.53895,-0.22277 z"
         id="path5002"
         sodipodi:nodetypes="cccc"
         inkscape:connector-curvature="0" /></g></g></svg>